<svg xmlns="http://www.w3.org/2000/svg" width="91.425" height="48.006" viewBox="0 0 91.425 48.006"><defs><style>.a{fill:#585857;}.b{fill:#fff;}</style></defs><path class="a" d="M70.51,19.58H65.66L60,25.16l1.49-5.58H57.66l-1,3.78a7.52,7.52,0,0,1-.67,8.5,7.27,7.27,0,0,1-1.67,1.65H57.8L59.4,31,61,28.13l2,5.39h4.1L64,25.68Z" transform="translate(-4 -0.994)"/><path class="a" d="M71.73,19.61h4.82l-.41,1.55A5.32,5.32,0,0,1,80,19.31a3.52,3.52,0,0,1,3.57,2.42,6.48,6.48,0,0,1,5-2.42c2.61,0,4,1.6,4,4.15A10.48,10.48,0,0,1,92.15,26l-2,7.56H85.36l1.89-7.28a4.81,4.81,0,0,0,.18-1.13A1.31,1.31,0,0,0,86,23.66c-1.29,0-2.07.93-2.52,2.51L81.5,33.54H76.68l1.93-7.28a4.809,4.809,0,0,0,.18-1.13,1.31,1.31,0,0,0-1.47-1.47c-1.29,0-2.07.93-2.52,2.51l-2,7.37H68Z" transform="translate(-4 -0.994)"/><path class="b" d="M52.76,26.66a2.91,2.91,0,0,0-3-3.23c-2.41,0-4,2.65-4,4.65a2.91,2.91,0,0,0,3,3.24c2.42,0,4-2.65,4-4.66M41.83,28.2A8.34,8.34,0,0,1,49.91,20c4.15,0,6.73,2.78,6.73,6.57a8.33,8.33,0,0,1-8.08,8.21c-4.15,0-6.73-2.77-6.73-6.56" transform="translate(-4 -0.994)"/><path class="b" d="M19.44,33.21H4.8l.72-2.79,8.68-7.81H7.81l.88-3.23H20.27l-.73,2.79L10.86,30h7.48a5.44,5.44,0,0,0,3,3.23Z" transform="translate(-4 -0.994)"/><path class="b" d="M48,19.72a8.16,8.16,0,0,0-6.27,4.49c-2.19.13-3.61,1.28-4.31,4l-1.26,5h-3.9l3.33-12.94h3.9l-.58,2.27c1.06-1.6,4.44-2.84,7.56-3a10.74,10.74,0,0,1,1.53.13" transform="translate(-4 -0.994)"/><path class="b" d="M28.21,25.18a2.92,2.92,0,0,0,.11-.72,1.64,1.64,0,0,0-1.79-1.7,3.27,3.27,0,0,0-3,2.4h4.69Zm6.71,5.16-.78,2.89h-8.9c-3.87,0-6.24-2.3-6.24-5.9a7.91,7.91,0,0,1,7.85-8,5.17,5.17,0,0,1,5.57,5.5,8.19,8.19,0,0,1-.5,2.73H23.23c-.22,1.52,2,2.84,3.56,2.84Z" transform="translate(-4 -0.994)"/><path class="a" d="M80.72,44.07a1.64,1.64,0,0,1,0,.43,1,1,0,0,1-1,.86c-.7,0-1.19-.5-1.19-1.38s.37-1.43,1.21-1.43a1,1,0,0,1,1,.87,1.23,1.23,0,0,1,0,.28Zm0-5.89v3.23h0A2,2,0,0,0,79,40.82a3,3,0,0,0-2.92,3.25,2.88,2.88,0,0,0,2.78,3.16,2.25,2.25,0,0,0,2-1h0l.08.88H83V38.18H80.7Z" transform="translate(-4 -0.994)"/><path class="a" d="M87.46,44.65a1.34,1.34,0,0,1,0,.34.9.9,0,0,1-.82.64c-.42,0-.65-.2-.65-.54,0-.49.49-.75,1.5-.75Zm2.22-1.15c0-1.63-.88-2.69-2.94-2.69a5.7,5.7,0,0,0-2.63.57l.41,1.47a4,4,0,0,1,1.82-.49c.89,0,1,.28,1,.49h0c-2.27,0-3.71.75-3.71,2.4a2,2,0,0,0,2.11,1.93,2.26,2.26,0,0,0,1.76-.67h0l.12.52h2.07a8.829,8.829,0,0,1-.1-1.52v-2Z" transform="translate(-4 -0.994)"/><path class="b" d="M49.28,43c0-.86,0-1.58-.05-2.12h1.91l.08.78h.05a2.15,2.15,0,0,1,1.88-.93,1.82,1.82,0,0,1,1.73,1h0a2.69,2.69,0,0,1,.89-.77,2.35,2.35,0,0,1,1.15-.26c1.34,0,2.19,1,2.19,2.73V47H56.9V43.76c0-.8-.26-1.21-.8-1.21a.77.77,0,0,0-.73.56,1.62,1.62,0,0,0-.07.47V47H53.08V43.76c0-.8-.26-1.21-.8-1.21a.79.79,0,0,0-.73.54,1.15,1.15,0,0,0-.07.46v3.38H49.26V43Z" transform="translate(-4 -0.994)"/><path class="b" d="M63.06,45.48c-.75,0-1.09-.7-1.09-1.59s.29-1.56,1.09-1.56,1,.71,1,1.56c0,1-.36,1.59-1,1.59Zm0,1.62a3.25,3.25,0,0,0,3.51-3.29,3.13,3.13,0,0,0-3.38-3.13c-2.31,0-3.6,1.38-3.6,3.25a3.19,3.19,0,0,0,3.47,3.17Z" transform="translate(-4 -0.994)"/><path class="b" d="M68.75,40.84l.75,2.65c.13.45.21.89.29,1.32h0c.08-.44.15-.85.26-1.32l.69-2.65H73.2L70.88,47H68.52l-2.31-6.11Z" transform="translate(-4 -0.994)"/><path class="b" d="M76.6,48.16A6.84,6.84,0,0,1,75.23,44a6.6,6.6,0,0,1,1.39-4.46L75,38.68A8.51,8.51,0,0,0,73.38,44a8.7,8.7,0,0,0,1.59,5Z" transform="translate(-4 -0.994)"/><path class="b" d="M77.81,37.59a1.19,1.19,0,1,1-1.19-1.21,1.19,1.19,0,0,1,1.19,1.21" transform="translate(-4 -0.994)"/><path class="b" d="M26.25,7.24a42.38,42.38,0,0,0-4.43,1.93,7.36,7.36,0,0,0-2.19,1.68c-.16.2-.4.43-.31.69s.48.16.71.16l10.6.05c3.49,0,7,0,10.5.05.86,0,1-.26.83-1-.24-1.39-.39-2.81-.51-4.23a15.22,15.22,0,0,1,1.16,3.32c.58,2,.58,2,2.62,2.15,4.73.36,9.47.69,14.3,1.05a4,4,0,0,1-1.65.19c-12.08.12-24.17.45-36.25,0a30.17,30.17,0,0,1-4.35-.38c-.42-.08-.9-.13-1-.62a1.1,1.1,0,0,1,.56-1.08A21.45,21.45,0,0,1,23.15,8a11.31,11.31,0,0,1,3.1-.79" transform="translate(-4 -0.994)"/><path class="a" d="M4.58,17.48c.6-3.69,4.68-6.41,8.28-7.56a1,1,0,0,0-.1-1.84L7.24,7.23c.11.57,1.09.67,1.19,1.26A56.093,56.093,0,0,1,43.74,3.81c12.2,2.17,22.83,9.2,35.18,10,3.51.23,7.27-.23,10.63,1C92.13,15.84,95.43,18,95,21c-.2,1.21.1,1.31.28.08.44-2.82-.07-4.77-2.29-6.47-2.53-1.92-5.63-2.4-8.74-2.53a63.14,63.14,0,0,1-9.8-.75A63.73,63.73,0,0,1,65.22,8.7C59.09,6.54,53.13,3.9,46.78,2.46A60.59,60.59,0,0,0,6.5,7.36c-.73.37-1.45.75-.65.78,2.63.07,4.72,1.51,6.5,1.8,0-.62-.07-1.23-.1-1.85a12,12,0,0,0-8.13,9.35c-.2,1.2-.13,3.15.06,1.92Z" transform="translate(-4 -0.994)"/></svg>